<svg id="Layer_1" data-name="Layer 1" xmlns="http://www.w3.org/2000/svg" viewBox="0 0 115.54 242.47"><defs><style>.cls-1{fill:none;stroke:#231f20;stroke-miterlimit:10;stroke-width:2px;}</style></defs><path class="cls-1" d="M127.31,256" transform="translate(-70.23 -14.53)"/><path class="cls-1" d="M128,256c-27.67,0-45.17-44.27-48-51.43-16.6-42-5.54-82.79,0-102.86A207.39,207.39,0,0,1,128,16a207.39,207.39,0,0,1,48,85.71c5.54,20.07,16.6,60.86,0,102.86C174,209.63,155.39,256,128,256Z" transform="translate(-70.23 -14.53)"/><path class="cls-1" d="M224,256" transform="translate(-70.23 -14.53)"/><path class="cls-1" d="M304,176" transform="translate(-70.23 -14.53)"/><path class="cls-1" d="M112,96l16,32,16-32-16,32v0" transform="translate(-70.23 -14.53)"/><path class="cls-1" d="M112,144l16,32,16-32" transform="translate(-70.23 -14.53)"/><path class="cls-1" d="M32,224" transform="translate(-70.23 -14.53)"/><path class="cls-1" d="M224,192" transform="translate(-70.23 -14.53)"/><path class="cls-1" d="M192,224" transform="translate(-70.23 -14.53)"/><path class="cls-1" d="M368,112" transform="translate(-70.23 -14.53)"/><path class="cls-1" d="M112,192l16,32,16-32" transform="translate(-70.23 -14.53)"/></svg>