<svg xmlns="http://www.w3.org/2000/svg" viewBox="0 0 115.54 242.47"><defs><style>.cls-1{fill:none;stroke:#231f20;stroke-miterlimit:10;stroke-width:2px;}</style></defs><g id="Layer_2" data-name="Layer 2"><g id="Layer_1-2" data-name="Layer 1"><path class="cls-1" d="M57.77,241.47c-27.67,0-45.17-44.27-48-51.43-16.6-42-5.54-82.79,0-102.85a207.37,207.37,0,0,1,48-85.72,207.37,207.37,0,0,1,48,85.72c5.54,20.06,16.6,60.85,0,102.85C103.77,195.1,85.16,241.47,57.77,241.47Z"/><path class="cls-1" d="M41.77,81.47l16,32,16-32q-8,16-16,32v0"/><path class="cls-1" d="M41.77,129.47c-1.41-2.81,9.76,19.53,16,32l16-32"/><path class="cls-1" d="M41.77,177.47l16,32c6.39-12.77,17.59-35.17,16-32"/></g></g></svg>