<svg id="Layer_1" data-name="Layer 1" xmlns="http://www.w3.org/2000/svg" viewBox="0 0 460 91.58"><defs><style>.cls-1,.cls-2{fill:#4d3c43;}.cls-1{stroke:#4d3c43;stroke-miterlimit:10;stroke-width:0.5px;}</style></defs><path class="cls-1" d="M12.08,48.21c2.77,2.18,4.35,5.35,4.35,9.7A39.38,39.38,0,0,1,15.34,66a41.26,41.26,0,0,0-1.08,9.21c0,7.72,5,11.28,10.09,12.28a10,10,0,0,0,3.17.39c1,0,1,.59,1,1.78,0,.79-.2,1.39-1.38,1.39-1,0-2.18-.2-3.37-.2C12.67,90.29,4.55,85.73,4.55,75.14A31.67,31.67,0,0,1,6.34,65c1-3.36,2-6.33,2-9.5,0-3.37-.8-6.54-3.17-8.12a7,7,0,0,0-3.57-1.19A1.73,1.73,0,0,1,0,44.45c0-1.19.59-1.78,1.58-1.78a7.6,7.6,0,0,0,3.77-.79c2-1,3-3.57,3-7.13,0-3-1-6.14-1.79-9.31a33.83,33.83,0,0,1-2-9.8C4.55,6.53,11.09,1.19,21.78.2c1.78,0,3.56-.2,4.95-.2s1.78.59,1.78,1.39c0,1.18-.2,1.78-1.19,1.78a13.88,13.88,0,0,0-2.77.2c-6.33.79-10.29,4.75-10.29,11a37.19,37.19,0,0,0,1.08,9.11,34.29,34.29,0,0,1,1.09,7.72c0,4.76-2.17,8.52-4.55,9.9-2,1.59-3.76,2.38-3.76,3.37C8.12,45.84,10.1,46.23,12.08,48.21Z" transform="translate(0.25 0.25)"/><path class="cls-1" d="M447.42,40.89c-2.77-2.18-4.36-5.35-4.36-9.71a39,39,0,0,1,1.19-7.72,58.52,58.52,0,0,0,1-8.41c0-6.73-4.95-10.69-10.1-11.68-1,0-2.18-.2-3-.2S431,2.77,431,1.58c0-1,.4-1.58,1.79-1.58.79,0,2,.2,3.16.2,10.7.59,19,5.54,19,15.34a30.15,30.15,0,0,1-2,9.7c-.79,2.78-1.78,5.55-1.78,8.32,0,3.37.79,6.53,3.17,8.12a7,7,0,0,0,3.36,1.19,1.62,1.62,0,0,1,1.79,1.58c0,1.19-.6,2-1.79,2a10.51,10.51,0,0,0-3.56.59c-2.18,1-3,3.77-3,7.33,0,2.77,1,5.74,1.78,9.11a38.17,38.17,0,0,1,2,11.19c0,9.5-6.73,15.24-17.42,16.23-1.59,0-3,.2-4.75.2-1.19,0-1.79-.6-1.79-1.58s.4-1.59,1.19-1.59a14.84,14.84,0,0,0,3-.2c6.14-.79,10.1-5.15,10.1-11.78a67,67,0,0,0-1-10.49,37.14,37.14,0,0,1-1.19-7.53c0-4.95,2.18-8.31,4.56-9.9,2-1.58,3.76-2.37,3.76-3.56S449.4,42.87,447.42,40.89Z" transform="translate(0.25 0.25)"/><path class="cls-2" d="M150.33,13.05a11.22,11.22,0,0,0-7.3,4.52,31.6,31.6,0,0,0-4.89,9.07,11.82,11.82,0,0,0,.2,9.12,15.62,15.62,0,0,0,6.07,6.31,14.23,14.23,0,0,0,9.41,2.32,14.08,14.08,0,0,0,7.74-4,21.14,21.14,0,0,0,4.92-8.11c1.08-3.07,1.59-6.37.12-9.4a18.54,18.54,0,0,0-3.13-4.28,30.54,30.54,0,0,0-4-3.93c-3.13-2.37-6.51-2-10.14-1.19-.13,0-.08.22,0,.19,3.39-.78,6.65-1.2,9.65.92a28.69,28.69,0,0,1,6.16,6.33,10.62,10.62,0,0,1,1.71,9.41A22.66,22.66,0,0,1,163,38.42c-3.94,5.16-10.35,7.34-16.4,4.61-5.56-2.51-10.17-7.72-8.9-14.16a28.37,28.37,0,0,1,4.19-9.4c1.93-3,4.67-5.75,8.4-6.22.13,0,.13-.22,0-.2Z" transform="translate(0.25 0.25)"/><path class="cls-2" d="M160.64,41.59a14.76,14.76,0,0,0,7.4-14.9,15.18,15.18,0,0,0-12.36-12.4,26.9,26.9,0,0,0-10-.12c-3.25.61-5.25,2.56-6.6,5.51s-3,6.66-2.68,10.12c.26,3.21,2.33,5.95,4.47,8.21,2.5,2.64,5.63,4.72,9.34,5,4.23.3,8.29-1.49,12.06-3.18.12-.06,0-.23-.1-.18-3.29,1.48-6.75,3-10.41,3.18a12.88,12.88,0,0,1-9-3.28,19,19,0,0,1-5.61-7.3c-1.27-3.38-.15-6.84,1.11-10s2.54-6.29,6-7.45a22.43,22.43,0,0,1,8.94-.62c6.41.58,12.17,4.08,14.18,10.43a14.51,14.51,0,0,1-6.79,16.86c-.12.06,0,.23.1.17Z" transform="translate(0.25 0.25)"/><path class="cls-2" d="M161.77,15.7c-3.41-.78-7-1.57-10.48-1.07a13.16,13.16,0,0,0-8,4.57c-3.91,4.49-6.81,11.76-3.62,17.39,3,5.24,10.5,8.85,16.41,7.34s9.5-8,10.4-13.73c1.1-7.06-1.73-14.65-8.41-17.86-.11-.05-.21.12-.1.18,5.68,2.72,8.71,8.82,8.55,15-.14,5.76-2.74,12.31-8,15.24-5.69,3.18-13.37.24-17.38-4.4-4.42-5.12-2.54-12.25,1-17.31a13.89,13.89,0,0,1,8.41-6c3.74-.76,7.58.09,11.23.92.12,0,.18-.16.05-.19Z" transform="translate(0.25 0.25)"/><path class="cls-2" d="M96,81.07a4.43,4.43,0,0,0,4.7-.4,8.46,8.46,0,0,0,3-4.68c1.56-5,2.75-10.14,4.4-15.14a208.61,208.61,0,0,1,12.54-30q4.14-8.06,9-15.72a.11.11,0,0,0-.06-.14c-6.74-2.44-13.83-.83-20.75-.36-6.06.41-12.89-.18-17.33-4.82a.11.11,0,0,0-.16,0,47.51,47.51,0,0,0-7.08,19.91c0,.08.07.11.13.1,2.93-.47,4.89-3.11,7.32-4.56a22.23,22.23,0,0,1,9.83-2.88,41.23,41.23,0,0,1,11,1c1.7.35,3.38.76,5.06,1.18.39.1,1,.05,1,.56,0,.17-.67.92-.78,1.08-.6.85-1.19,1.7-1.78,2.56A163.86,163.86,0,0,0,97.24,65.56C96.59,67.37,96,69.2,95.38,71a19.34,19.34,0,0,0-1.23,5.23c-.07,2.52,1.61,5.42,4.48,4.95.13,0,.07-.21,0-.19-2.87.46-4.36-2.57-4.22-5a25.77,25.77,0,0,1,1.7-6.43q1.88-5.72,4.19-11.26a162.56,162.56,0,0,1,11.14-22Q115,30.47,119,24.88a.11.11,0,0,0-.06-.15c-5.71-1.44-11.57-2.92-17.51-2.51a23.89,23.89,0,0,0-7.37,1.64,23.81,23.81,0,0,0-6,3.85,14.5,14.5,0,0,1-1.65,1.17c-.37.22-1.38.9-1.82.73s.46-4.18.59-4.74A47,47,0,0,1,88,16.46c.55-1.26,1.16-2.5,1.82-3.71.31-.57.63-1.13,1-1.69.18-.3.34-.86.78-.82.19,0,.66.62.79.74a15.54,15.54,0,0,0,5.53,2.94c4.77,1.46,9.82,1.09,14.71.58a82.49,82.49,0,0,1,8.6-.63,27.21,27.21,0,0,1,4.85.4,18.91,18.91,0,0,1,1.95.44c1.16.33,1.36.43.7,1.49a207.83,207.83,0,0,0-15.88,31.23q-3.75,9.23-6.61,18.76c-.93,3.11-1.68,6.26-2.59,9.36S99.89,83,96.09,80.9c-.11-.07-.21.11-.1.17Z" transform="translate(0.25 0.25)"/><path class="cls-2" d="M100.26,81.53a99.66,99.66,0,0,0,4-12.62,98.55,98.55,0,0,1,4.5-13.26c3.73-8.63,8.65-16.75,13.25-24.94l8.31-14.79c0-.06,0-.12-.06-.15-8.36-3.32-17.21.61-25.8.07A17.89,17.89,0,0,1,97.8,14.2c-1.78-.87-3.31-2.19-5.15-3a4.19,4.19,0,0,0-4,0,5.39,5.39,0,0,0-2,3.56c-.58,2.53-.88,5.15-1.3,7.71L83.94,31c0,.11.12.19.18.08,3-5.82,9.46-8.84,15.77-9.4a42,42,0,0,1,11.45.8c1.9.35,3.79.78,5.68,1.22.88.2,2.78.41,2.83,1.73s-1.51,2.17-2.35,2.82c-9.75,7.63-14,20.45-18.27,31.59-2.88,7.52-5.4,15.23-6.16,23.29,0,0,.05.1.1.1a10,10,0,0,0,9.4-6.8c0-.12-.15-.17-.19,0A9.67,9.67,0,0,1,99,81.05a10,10,0,0,1-2.42,1.34A5.75,5.75,0,0,1,93.7,83c-1-.29.39-5.67.61-6.73.46-2.19,1-4.36,1.67-6.5A190.91,190.91,0,0,1,105,46.07a63.54,63.54,0,0,1,5.34-9.79,40.33,40.33,0,0,1,8.12-8.58c.73-.59,1.79-1.57,1.5-2.64-.37-1.4-2.53-1.5-3.63-1.76a63.52,63.52,0,0,0-13.13-2C96.46,21.21,89,23.39,85,29.21c-.25.35-.46.72-.69,1.08-.37.59,0,0,0-.48l.59-3.6L86,19.47a27.45,27.45,0,0,1,1.26-6.1c1.07-2.57,3.48-2.84,5.78-1.73,1.74.85,3.24,2.11,5,2.91a17.67,17.67,0,0,0,5,1.35,44.55,44.55,0,0,0,11.64-.58c4.38-.59,8.94-1.19,13.29-.1a6.19,6.19,0,0,1,1.45.43c.66.37.49.64.15,1.26l-1.84,3.26-3.42,6.09c-4.51,8-9.26,16-13.35,24.25a91,91,0,0,0-4.93,11.76c-1.38,4.2-2.38,8.51-3.67,12.74a63.71,63.71,0,0,1-2.3,6.42c0,.11.13.21.18.1Z" transform="translate(0.25 0.25)"/><path class="cls-2" d="M100.36,79.8A4.69,4.69,0,0,1,94.91,83a4.76,4.76,0,0,1-3.35-5.69,37.6,37.6,0,0,1,2.52-6.59c1-2.29,1.94-4.57,3-6.83q5.77-12.9,12.68-25.24,3.87-6.91,8.1-13.65a.1.1,0,0,0-.06-.14c-9.51-1.68-20.61-3.43-28.91,2.87A20.48,20.48,0,0,1,85.62,30c-.57.27-2,.87-2.32,0a7.19,7.19,0,0,1,.22-2.41q.41-4.21,1-8.4c.4-3,.84-6.05,1.36-9.06a2.83,2.83,0,0,1,.87-2c1-.88,2,0,2.75.77A18.58,18.58,0,0,0,91.53,11c3.38,2.57,8,2.64,12,2.85l17.45.89a15.54,15.54,0,0,1,3.6.35,2.06,2.06,0,0,1,1.72,1.78,6.24,6.24,0,0,1-.79,2.45l-3.32,8L115.5,43.71,100.33,80.46c0,.12.14.18.19.06l22.76-55.14c1-2.3,1.93-4.58,2.85-6.89.45-1.15.67-2.38-.49-3.15s-3-.69-4.38-.76l-7.37-.38c-4.64-.23-9.31-.34-13.94-.75a21,21,0,0,1-5.72-1.16,13.56,13.56,0,0,1-4.76-3.63c-.85-.86-2.25-1.74-3.2-.5a5.28,5.28,0,0,0-.71,2.39c-.22,1.35-.44,2.71-.64,4.06q-1.19,7.91-1.87,15.87a.12.12,0,0,0,.08.1c3,.6,5.5-2.69,7.87-4a25.18,25.18,0,0,1,10.7-3,54.72,54.72,0,0,1,12.64.93c.51.08,2.75.18,3,.66s-1.09,2.07-1.39,2.55c-1,1.72-2.1,3.46-3.12,5.2q-6.09,10.37-11.38,21.18c-3.44,7-6.82,14.19-9.54,21.52-1,2.82-.77,6.07,2.33,7.39a4.84,4.84,0,0,0,6.34-3.11c0-.12-.15-.17-.19,0Z" transform="translate(0.25 0.25)"/><path class="cls-2" d="M44.13,82.17C58.89,80,70.83,68.66,74.88,54.48c3.77-13.24,2-33.93-13.31-39A19.15,19.15,0,0,0,42.06,20.2a26.07,26.07,0,0,0-5.59,9.69,36.75,36.75,0,0,0-2.59,11.2,11.4,11.4,0,0,0,3.53,9c2.64,2.36,6.25,3.44,9.68,4a20.82,20.82,0,0,0,11.3-1,14.81,14.81,0,0,0,4.32-2.74,12.28,12.28,0,0,0,1.54-1.68,1.84,1.84,0,0,0,.45-.78,5.53,5.53,0,0,1-.48,1.51,55.75,55.75,0,0,1-12.06,20.3,71.68,71.68,0,0,1-8.82,7.69,4.12,4.12,0,0,0-2,3.31A1.81,1.81,0,0,0,43,82.57a1.49,1.49,0,0,0,1.65-1.34c0-.13-.19-.13-.2,0-.12,1.51-2.06,1.37-2.63.36a2.52,2.52,0,0,1-.1-1.83c.39-1.26,1.58-2.05,2.59-2.79C45.56,76,46.82,75,48,74a55.71,55.71,0,0,0,7.5-7.93A56.27,56.27,0,0,0,65,47.58c0-.11-.13-.17-.19-.08-3.27,5.23-9.53,7.14-15.43,6.7-5.32-.39-11.88-2.22-14.3-7.5S34.84,35,36.67,30c2-5.48,5-10.39,10.32-13.14a18.79,18.79,0,0,1,16.53-.37c5.27,2.44,8.76,7.08,10.64,12.47A42.85,42.85,0,0,1,71.6,62.18,37.78,37.78,0,0,1,44.07,82c-.12,0-.07.21.06.19Z" transform="translate(0.25 0.25)"/><path class="cls-2" d="M41.73,81.85C54.1,79,66,72.31,73.05,61.5c6.73-10.23,8.85-24,2.66-35A22.74,22.74,0,0,0,63,15.86,19,19,0,0,0,46.53,18c-4.92,3.3-8.5,8.67-11.06,13.92-1.4,2.88-2.49,6.14-2,9.39.46,3,2.34,5.46,4.39,7.61,4.47,4.67,10.73,8.6,17.44,8.18,5.58-.35,11.13-3.82,12.71-9.38,0-.1-.14-.18-.19-.07a107.64,107.64,0,0,1-26.4,33.74s0,.16,0,.17a14.12,14.12,0,0,0,7.76-.93c.12,0,.07-.24,0-.2A13.69,13.69,0,0,1,43,81.49a3.49,3.49,0,0,1-.65,0c-.4-.12-.4-.13-.32-.37s.85-.74,1.12-1c.74-.66,1.47-1.32,2.19-2A105.87,105.87,0,0,0,53.13,70a106.77,106.77,0,0,0,12.71-18.2c.45-.8.88-1.61,1.3-2.42a6.89,6.89,0,0,0,.68-1.32c0-.17-.09-.07-.14,0s-.19.53-.29.78A11.63,11.63,0,0,1,64.56,53a15.11,15.11,0,0,1-9.07,3.89c-7.58.56-15-4.52-19.39-10.32-2.79-3.68-3.08-7.83-1.51-12.09a40.48,40.48,0,0,1,5.74-10.11A24.85,24.85,0,0,1,48.45,17a18.2,18.2,0,0,1,10.76-1.8A22.38,22.38,0,0,1,76.09,27.68a31.5,31.5,0,0,1,2,22C74.24,64.8,61.46,75.45,47,80.17q-2.64.85-5.35,1.48c-.12,0-.07.22.06.2Z" transform="translate(0.25 0.25)"/><path class="cls-2" d="M41.58,78.48A41.48,41.48,0,0,0,64.72,46.39a.11.11,0,0,0-.19-.06c-2.38,5.57-8.64,7.87-14.34,7-5.48-.79-11.86-4-14.34-9.22-2.75-5.79.61-12.68,3-18a25.84,25.84,0,0,1,4.34-7.07,16.14,16.14,0,0,1,7.37-4.51,25.58,25.58,0,0,1,16.94.73c5.43,2.38,8.13,7.53,9.31,13.09a46,46,0,0,1-6.51,34,48.83,48.83,0,0,1-12.67,13.2A49.67,49.67,0,0,1,50,80a12.41,12.41,0,0,1-4.92,1.64,2.82,2.82,0,0,1-2.67-1.33,2,2,0,0,1,.37-2.66c.1-.07,0-.25-.1-.17-1.88,1.35-.27,4,1.58,4.3a8.15,8.15,0,0,0,4.59-1,48.44,48.44,0,0,0,5.08-2.58,49.6,49.6,0,0,0,16-14.91A46.86,46.86,0,0,0,77.75,41a44.9,44.9,0,0,0-.59-12,22.5,22.5,0,0,0-4-9.72c-4.55-5.79-13.06-6.8-19.89-5.65a17.83,17.83,0,0,0-9.69,4.64C41,20.89,39.42,24.22,38,27.52c-1.58,3.74-3.37,7.7-3.4,11.83a11.86,11.86,0,0,0,4.25,9C44.1,53,52.57,55.56,59.1,52.27a12.63,12.63,0,0,0,3.89-3,10.61,10.61,0,0,0,1.25-1.81c.16-.3.33-1.12.19-.32-.11.54-.16,1.09-.26,1.63a40.12,40.12,0,0,1-3.48,10.5A41.58,41.58,0,0,1,46.17,75.7a39.68,39.68,0,0,1-4.69,2.6c-.12.06,0,.23.1.18Z" transform="translate(0.25 0.25)"/><path class="cls-2" d="M51.27,16.91c-2,1.95-2.73,4.61-3.06,7.31-.46,3.76-.52,7.6-.74,11.38-.17,2.85-.78,6.36.78,8.95,1.36,2.26,4,2.78,6.46,3s5.58.51,7.3-1.56a5.73,5.73,0,0,0,1.09-3.32c.14-2,0-4.06,0-6.07,0-3.87.1-7.78-.15-11.65-.17-2.77-.9-5.76-3.2-7.54a6.31,6.31,0,0,0-7.69.31c-2.64,2-3.52,5.47-3.51,8.64a.1.1,0,0,0,.2,0c0-2.89.7-6,2.9-8s5.3-2.62,7.71-1c2.73,1.88,3.33,5.41,3.43,8.48s.07,6.18.1,9.27l0,4.73a15,15,0,0,1-.3,4.53c-1,3.17-4.42,3.25-7.17,3s-6.05-.67-7.34-3.58c-1.11-2.51-.6-5.58-.44-8.23.2-3.42.32-6.85.62-10.26.27-3,.89-6.1,3.12-8.29a.1.1,0,0,0-.14-.14Z" transform="translate(0.25 0.25)"/><path class="cls-2" d="M51.52,17.78a31.54,31.54,0,0,0-3.41,10,45.35,45.35,0,0,0-.9,10.52c.29,5.15,3.31,11.48,9.35,11.14,7.12-.39,6.17-8.7,6.14-13.74,0-3.73.19-7.55-.18-11.26-.26-2.59-1.12-5.33-3.3-6.93a6.62,6.62,0,0,0-7.91.49c-2.61,2-3.54,5.45-3.59,8.62a.1.1,0,0,0,.2,0c0-2.94.84-6.06,3.09-8.1s5.61-2.66,8.09-.84,3.18,5.14,3.31,8.09.06,6,.08,9c0,4.94,1.38,13.74-5.59,14.47-6.43.68-9.38-6.31-9.52-11.62a49.12,49.12,0,0,1,1-10.19,31.18,31.18,0,0,1,3.31-9.51c.07-.11-.11-.21-.17-.1Z" transform="translate(0.25 0.25)"/><path class="cls-2" d="M52,17.45a31.37,31.37,0,0,0-7,17.3c-.38,5.52,1.61,11.92,7.15,14.19a8.86,8.86,0,0,0,7.05-.16,7.91,7.91,0,0,0,4.22-5.85c.59-3,.14-6-.16-9a94.82,94.82,0,0,0-1.18-10.37c-.59-2.72-2.19-5.7-5.17-6.3a4,4,0,0,0-4.8,3.48c0,.13.19.13.2,0,.16-3.32,4.18-4.06,6.49-2.42,2.61,1.85,3.19,5.17,3.5,8.14s.59,5.79.88,8.68a27.71,27.71,0,0,1,.11,7.39,7.86,7.86,0,0,1-4.19,6.09,8.67,8.67,0,0,1-7.54-.17c-5-2.53-6.72-8.46-6.36-13.69a31.13,31.13,0,0,1,7-17.15c.08-.1-.06-.25-.14-.15Z" transform="translate(0.25 0.25)"/><path class="cls-2" d="M264,62.67a26.77,26.77,0,0,1-28.67,8.77A29.65,29.65,0,0,1,215.4,48.26C213.52,36.85,218.2,23,228.56,17a21,21,0,0,1,17.76-1.19,26,26,0,0,1,12.87,11,30.54,30.54,0,0,1,2.05,3.93c.47,1.1.8,2.66,1.86,3.37a1.73,1.73,0,0,0,2,.06c.76-.6.59-1.72.45-2.55a135.16,135.16,0,0,0-5.92-21.74.1.1,0,0,0-.17,0l-2,1.91c-.73.7-1,1.18-2,.84a19.92,19.92,0,0,1-2.26-1.14c-.89-.44-1.79-.88-2.7-1.29a57,57,0,0,0-9-3.36c-5.75-1.52-12.05-1.75-17.64.51-5.35,2.16-9.08,6.6-12,11.46a87.8,87.8,0,0,0-8,17.08,32.93,32.93,0,0,0-1.08,17.38,37.79,37.79,0,0,0,7.08,14.88c7.07,9.15,18.33,15.54,30,15.6s23.78-7.79,25.79-20a.1.1,0,0,0-.09-.13,4.81,4.81,0,0,0-4.69,2.63c-.06.11.11.21.17.1.64-1.23,2.27-2.76,3.82-2.55.78.11.47.69.33,1.3a21,21,0,0,1-.59,2.06,22.51,22.51,0,0,1-3.9,6.87,26.2,26.2,0,0,1-12.89,8.42c-11.37,3.26-23.93-1.19-32.54-8.82-8.18-7.24-13.73-18-13-29.14.43-6.46,3-12.52,5.86-18.25,2.5-5.06,5.08-10.34,9.14-14.36,4.84-4.78,11.54-6.5,18.21-5.94,7.37.62,14.18,3.89,20.66,7.24a.1.1,0,0,0,.12,0l2-1.92a6.59,6.59,0,0,1,.67-.63c.62-.42.44-.4.81.22a11.67,11.67,0,0,1,.77,2.27c.3.91.59,1.83.87,2.75q1.56,5,2.76,10.18c.4,1.71.79,3.43,1.11,5.16a7.93,7.93,0,0,1,.2,1.28c0,.85-.09,2-1.67,1.73-1.27-.22-1.68-1.83-2.08-2.84a31.2,31.2,0,0,0-4-7,25.35,25.35,0,0,0-13-9.21,21,21,0,0,0-16.49,1.84c-9.84,5.84-14.54,18.79-13.31,29.78a30,30,0,0,0,17.84,24.08c10.78,4.55,24,1.33,31.28-7.94.07-.1-.07-.24-.15-.14Z" transform="translate(0.25 0.25)"/><path class="cls-2" d="M263.13,65.82a1.64,1.64,0,0,1,2.83-1,2.83,2.83,0,0,1,.58,2.6c-.36,1.53-1.68,2.73-2.78,3.78a32.55,32.55,0,0,1-6.23,4.66,36.24,36.24,0,0,1-14.46,4.56,35.35,35.35,0,0,1-28-9.75,39.29,39.29,0,0,1-12-27.3,33.59,33.59,0,0,1,4-16.73,28.37,28.37,0,0,1,11.78-11.32c12.54-6.58,27.21-4.27,40,.42.08,0,.15-.07.11-.14a2,2,0,0,1,1.22-2.77,2.87,2.87,0,0,1,2.8,1c1.32,1.38,1.38,3.44,1.54,5.23l.9,10.43.21,2.49a8.28,8.28,0,0,1,.09,1c0,.73.12.64-.48.3a15,15,0,0,1-1.83-1.56l-2-1.72c-2.42-2.07-4.83-4.16-7.28-6.2-4.54-3.76-9.54-7.31-15.44-8.46a17.55,17.55,0,0,0-14.31,3.41c-9,7-10.59,19.68-9.21,30.27a31.92,31.92,0,0,0,5.71,15.1A27.6,27.6,0,0,0,232.42,73c11,4.54,23.88,1.2,31.87-7.5.08-.09-.06-.23-.14-.14a29.11,29.11,0,0,1-24.41,9.34,27.43,27.43,0,0,1-21.07-14.47A36.5,36.5,0,0,1,215,45.8a42.57,42.57,0,0,1,1.41-14.69c2.65-8.93,10.28-16.83,20.22-15.9,5.94.56,11.16,3.8,15.73,7.43s9,7.56,13.41,11.36c.06,0,.18,0,.18-.07l-1.16-13.41c-.23-2.62-.1-6.93-3.31-7.85a2.33,2.33,0,0,0-2.58.86,2.18,2.18,0,0,0-.45,1.3s.08.66.13.61-.92-.3-1.07-.35a74.19,74.19,0,0,0-12.26-3.29c-13.83-2.37-30,.92-37.75,13.7-7.16,11.73-5.55,27.17,1.73,38.41A36,36,0,0,0,259.33,75c2.45-1.61,5.31-3.69,6.85-6.24.91-1.51.91-5-1.67-4.62a1.71,1.71,0,0,0-1.58,1.68c0,.13.19.13.2,0Z" transform="translate(0.25 0.25)"/><path class="cls-2" d="M264.4,65.86c-7.86,5.47-17.75,9-27.41,7.26-8.13-1.47-15.93-6.85-18.86-14.8-1.8-4.87-1.64-10.18-1.29-15.28s.78-10.47,2.64-15.37c1.67-4.4,4.55-8.45,8.79-10.67a19.71,19.71,0,0,1,13.11-1.54c10.29,2.16,17.12,11.16,20.84,20.44a.12.12,0,0,0,.1.08c4.08-.39,4.26-5.3,4.14-8.42a38.17,38.17,0,0,0-2.52-12.9c-.57-1.39-1.49-3-3-3.39a3,3,0,0,0-3.06,1.07,2.26,2.26,0,0,0-.32.64c0,.15,0,.64,0,.71-.3.41-3-.33-3.51-.41L246.07,12c-5.08-.8-10.14-1.66-15.23-2.39-4.14-.6-8.53-1-12.57.37-7.75,2.6-11.35,11.15-13.93,18.21-3,8.31-4.56,17.35-2.37,26.05a38.44,38.44,0,0,0,11.34,18.82C224.63,83.43,241.45,85.16,255,78.2a35.74,35.74,0,0,0,9.11-6.65c1.81-1.85,4.32-5.53,1.51-7.76-1.31-1-3-.5-4.26.31-1.87,1.18-3.43,2.81-5.27,4a34.4,34.4,0,0,1-12.41,5.11,35.2,35.2,0,0,1-6.8.64.1.1,0,0,0,0,.2,34.71,34.71,0,0,0,18.61-5.33,32.53,32.53,0,0,0,3.4-2.45c1.52-1.24,3.54-3.45,5.74-2.81s2.34,3.32,1.54,5a14,14,0,0,1-3.4,4,37.82,37.82,0,0,1-34.45,8.53C216.48,78,206.89,68.5,203,57a38.38,38.38,0,0,1-.91-20.31,62.86,62.86,0,0,1,3.37-10.8A45.24,45.24,0,0,1,210,17a16.71,16.71,0,0,1,9-7c4-1.16,8.25-.72,12.29-.12,8.81,1.3,17.6,2.78,26.4,4.17a.11.11,0,0,0,.12-.13c-.57-2.28,2.53-3,4-2s2,2.77,2.55,4.32A42.65,42.65,0,0,1,266.2,26.4a21.53,21.53,0,0,1-.08,5.2c-.27,1.46-1.34,4-3.16,4.08-.82,0-.91-.72-1.16-1.3s-.53-1.2-.81-1.79a43.91,43.91,0,0,0-2.18-4c-5.51-8.92-15.36-15.76-26.25-13.37a17.86,17.86,0,0,0-11.85,9.24c-3,5.48-3.6,11.78-4,17.89-.41,5.93-.65,12.17,2,17.68a23.72,23.72,0,0,0,10.11,10.37c11.6,6.34,25.44,2.79,35.75-4.39.11-.07,0-.25-.1-.17Z" transform="translate(0.25 0.25)"/><path class="cls-2" d="M285.86,79.87l-5,.78a36.53,36.53,0,0,1-5,.78c-.57,0-.87,0-1.16-.66a4.16,4.16,0,0,1-.2-1.27,5.61,5.61,0,0,1,.35-2.18c.47-1.26,1.12-1.22,2.34-1.18l2.72.1c.06,0,.09,0,.1-.1a117.54,117.54,0,0,0,.6-13.79q-.06-3.39-.28-6.78a34.28,34.28,0,0,0-.62-5.72c-.6-2.53-2.75-5.45-5.73-4.66-.08,0-.58.26-.63.25-.32-.09-.46-1-.45-1.33,0-1.06,2.1-1.45,3-1.79l6.39-2.52,6.38-2.51c.6-.23,2.59-1.37,3-.86.18.22-.1,1.39-.12,1.73l-.14,2-1,13.78c-.33,4.56-.85,9.16-.94,13.74-.06,3.17.56,6.66,3.32,8.62a5.28,5.28,0,0,0,2.27.94c.43.07.85,0,1.28.06s1.62-.07,1.77.53l-.46,1.65-.56.07c-2.64.27-5.3.38-7.95.58l-7.69.56-4,.28a9.49,9.49,0,0,1-2,.15c-.81-.12-.47-.69-.33-1.35,0-.12-.16-.18-.19,0l-.33,1.53a.1.1,0,0,0,.1.12l15.89-1.15,4-.29a16.85,16.85,0,0,0,3.1-.26,1.13,1.13,0,0,0,.41-2.08,2.71,2.71,0,0,0-1.78-.49,5.84,5.84,0,0,1-3.71-1.19,8.82,8.82,0,0,1-2.94-6.68,61.08,61.08,0,0,1,.35-7.41l.57-7.88,1.29-18a.1.1,0,0,0-.13-.09l-19.15,7.53c-.06,0-.09.06-.07.12l.43,2.22a.1.1,0,0,0,.15.06c1.93-1.15,4.29-.05,5.4,1.72s1.25,3.9,1.41,5.89a128,128,0,0,1,.43,12.84q0,3.15-.27,6.29c0,.57-.09,1.13-.14,1.69a4.25,4.25,0,0,1-.13,1.45c-.47.76-2.43.29-3.16.26-.38,0-1-.17-1.32,0s-.78,1.47-.89,1.87a5.89,5.89,0,0,0,.36,3.92.12.12,0,0,0,.11,0l10.89-1.7c.12,0,.07-.22-.06-.2Z" transform="translate(0.25 0.25)"/><path class="cls-2" d="M284.1,80.74c-3.2-.76-6.58,1.38-9.62-.21-1.7-.88-2.58-2.87-1-4.39s4.18-1,6.18-.51a.1.1,0,0,0,.13-.1,60.16,60.16,0,0,1,.41-12.86c.41-3.91,1-8,.36-12-.45-2.84-2.12-5.88-5.24-6.33a5.31,5.31,0,0,1-.9,0c-.45-.14.26-.32.53-.52.81-.58,1.63-1.14,2.48-1.64A29.9,29.9,0,0,1,283,39.6c1.77-.62,4.32-1.45,5.89,0s1.06,4.11,1,6l-.44,13.47c-.12,3.85-.73,8.1.38,11.87.78,2.66,2.88,5.21,5.79,5.54a9.37,9.37,0,0,0,1.06,0c.74,0,.83.29.69,1.06a3.81,3.81,0,0,1-3,2.75A39.62,39.62,0,0,1,287,81.39c-2.45.23-4.92.35-7.38.34-1.17,0-2.34,0-3.5-.08a5.61,5.61,0,0,1-1.91-.39c-1.09-.48-2-1.88-1-3,.09-.1,0-.24-.14-.14-1.43,1.47.25,3.2,1.78,3.55a20.44,20.44,0,0,0,4.49.23q2.63,0,5.25-.15a46,46,0,0,0,9.71-1.29c1.86-.54,3.78-2.1,3.05-4.25a.11.11,0,0,0-.12-.07,5.85,5.85,0,0,1-5.62-2.1,10.17,10.17,0,0,1-2.2-6.12c-.33-4.33.13-8.79.27-13.12l.22-6.74a39,39,0,0,0,.09-6.21c-.38-3-2.86-3.63-5.45-3a29.17,29.17,0,0,0-10.81,5.57c-.09.07,0,.18.1.17a5.42,5.42,0,0,1,5.49,3.1,13.63,13.63,0,0,1,1.18,6.34c0,4.41-.68,8.76-1,13.14a47.92,47.92,0,0,0-.12,6.67c0,.41.31,1.22-.18,1.45-.25.11-1.39-.32-1.64-.36a6.35,6.35,0,0,0-2.34,0c-2.17.49-3.83,2.9-2.11,4.81,2.83,3.16,7.46.32,10.9,1.14a.1.1,0,0,0,.05-.19Z" transform="translate(0.25 0.25)"/><path class="cls-2" d="M275,81l-.45-3.53c0-.21-.21-.65-.07-.81s-.25,0,.3,0c.3,0,.6.19.91.2a3.82,3.82,0,0,0,3.19-1.69C280,73.65,280,71.61,280,69.8c0-2.6,0-5.21,0-7.81l0-7.57c0-2,.28-4.22-.38-6.1-.57-1.59-1.88-1.89-3.22-2.65-1.63-.91-1.34-2.51.07-3.46a13.07,13.07,0,0,1,3.36-1.35l7.58-2.47,1.66-.54c.27-.08,1.64-.72,1.89-.61.53.22-.31,3-.41,3.52Q289,48,288.1,55.35q-.47,3.7-.8,7.42a17.46,17.46,0,0,0,.32,6.64,7.65,7.65,0,0,0,2.57,3.86c1.69,1.29,3.38.86,5.32,1.27a2.51,2.51,0,0,1,2.06,1.61,1.87,1.87,0,0,1-1,2.13,9.28,9.28,0,0,1-3.34,1l-8.42,1.56c-2.63.49-5.9,1.51-8.44.22-1.93-1-3.1-4.36-.77-5.59.12-.06,0-.24-.1-.18a2.88,2.88,0,0,0-1.22,3.49,4.29,4.29,0,0,0,3.9,3c2.51.32,5.19-.47,7.64-.93,3-.55,6.1-.92,9-1.69,1.32-.35,3.3-1.21,3-2.9-.32-2.09-3-2-4.54-2.09-7.41-.56-6-10.24-5.45-15.24q1.22-11.05,3.5-22a.1.1,0,0,0-.12-.12L278.71,41c-1.5.49-5.12,2-3.47,4.14.76,1,2.22,1.11,3.14,1.9,1.66,1.42,1.28,4.23,1.29,6.18l.07,12.69c0,2.34.3,4.91-.2,7.21s-2.83,4.74-5.19,3.1c-.05,0-.16,0-.15.08l.61,4.71c0,.13.22.13.2,0Z" transform="translate(0.25 0.25)"/><path class="cls-2" d="M284.26,16.14a5.84,5.84,0,0,0-6.78,2.66,5.64,5.64,0,0,0,1.73,7c2.7,2.06,6.31.79,8.73-1.09,1.19-.93,2.34-2.28,2.23-3.89A4.39,4.39,0,0,0,288,17.65c-2.63-1.73-7.76-2.82-9.13,1.06,0,.12.15.17.2.05,1.22-3.48,5.67-2.68,8.17-1.32a5,5,0,0,1,2.7,2.9c.4,1.58-.62,3-1.77,4-2.16,1.84-5.55,3.27-8.24,1.71a5.56,5.56,0,0,1-2.53-6.46,5.59,5.59,0,0,1,6.85-3.24.1.1,0,0,0,.06-.19Z" transform="translate(0.25 0.25)"/><path class="cls-2" d="M283.86,16.37c-1.37-.83-2.93-.28-4.21.48a14,14,0,0,0-3.87,3.35,5.51,5.51,0,0,0-1.16,4.72,4.94,4.94,0,0,0,2.61,3c3.13,1.59,6.79.2,9.66-1.32a6.37,6.37,0,0,0,3-2.73,3.64,3.64,0,0,0-.62-3.73,13.72,13.72,0,0,0-4.62-3.66,4,4,0,0,0-4.53.29c-.1.09,0,.23.14.14,2.51-2.28,6.24.7,8.09,2.51,1,1,1.95,2.4,1.52,3.92a5.25,5.25,0,0,1-2.69,2.87c-2.5,1.43-5.77,2.79-8.67,2a5.5,5.5,0,0,1-3.19-2.2,4.63,4.63,0,0,1,0-4.7,11.34,11.34,0,0,1,3.51-3.62c1.37-1,3.28-2.11,4.93-1.11.11.07.21-.1.1-.17Z" transform="translate(0.25 0.25)"/><path class="cls-2" d="M283.69,15.86c-3.25-1-5.13,2.78-6.17,5.14a5.24,5.24,0,0,0-.39,4.25A4.89,4.89,0,0,0,280,27.77a6.11,6.11,0,0,0,6.77-2,5.91,5.91,0,0,0-7.94-8.49c-.11.07,0,.24.1.17a5.7,5.7,0,0,1,8.25,7.24,5.83,5.83,0,0,1-5.68,3.22A5.23,5.23,0,0,1,278,26.26a4,4,0,0,1-.75-4.09,15.78,15.78,0,0,1,2.14-4.31c1-1.31,2.55-2.35,4.22-1.81.12,0,.17-.15.05-.19Z" transform="translate(0.25 0.25)"/><path class="cls-2" d="M342.86,8.65c-4.83.63-9.66,1.22-14.48,1.9-1.48.2-3.18.55-3.85,2a2,2,0,0,0-.16,1.47c.26.59.72.47,1.34.76,3.3,1.57,4.42,5.85,4.37,9.21-.05,2.35-.51,4.68-.73,7a21.84,21.84,0,0,0-.08,3.43c0,.39.07.78.13,1.16.1.66.21.93-.51.69-6.7-2.27-14.28,0-19.54,4.43-5.87,5-8.72,12.73-9.3,20.26-.28,3.69-.35,8,1.19,11.41s4.92,5.25,8.31,6.52c7.15,2.69,16.79,4.25,22.42-2.32a4.77,4.77,0,0,0,.6-.76c.14-.29.06-.39-.15,0a2.32,2.32,0,0,0,.16,1.82,3.49,3.49,0,0,0,2.73,2c2.09.31,4.28-.61,6.25-1.19,2.25-.66,4.57-1.21,6.78-2,.77-.27,2.06-1,1.53-2-.44-.82-1.65-.53-2.38-.39C341,75.3,341.81,67,341.81,62.86V17.54a45,45,0,0,0-.08-6.67c-.16-1.06-.67-2.22-1.87-2.33a1.44,1.44,0,0,0-1.72,1.27c0,.13.19.13.2,0,.1-1.72,2.27-1.1,2.81-.17a4.87,4.87,0,0,1,.46,2.32c0,1.61,0,3.22,0,4.83V46.17q0,10,0,19.92c0,2.29-.09,4.91,1.44,6.79,1.36,1.67,2.86,1.68,4.8,1.36.19,0,1.17-.22,1.37,0l.22,1.45a3,3,0,0,1-1,.58c-.68.26-1.41.42-2.11.63l-5.05,1.47a17.34,17.34,0,0,1-5.34,1.17c-1.95-.07-4.4-2-3-4.1.07-.11-.11-.21-.18-.11-3.73,5.65-11,6.58-17.16,5.26-6-1.27-13.23-3.67-14.83-10.29-1.35-5.58-.62-12.12,1.14-17.52A25.31,25.31,0,0,1,312,39.07c5.22-3.33,11.83-4.5,17.69-2.23a.09.09,0,0,0,.12-.12c-1.52-6.58,2.91-14.37-1.77-20.25a7.57,7.57,0,0,0-2.82-2.06c-.6-.29-.81-.54-.67-1.27a2.69,2.69,0,0,1,1.38-1.74,9.69,9.69,0,0,1,3.41-.78l13.52-1.77c.13,0,.13-.22,0-.2Z" transform="translate(0.25 0.25)"/><path class="cls-2" d="M342.35,8.81l-9.78,1.6c-1.56.25-3.15.46-4.7.77a6.21,6.21,0,0,0-2.62,1.06,2.06,2.06,0,0,0,0,3.37c2,1.55,5.68.42,6.46,3.4a13.44,13.44,0,0,1-.09,4.29l-.42,5.15c-.24,3-.07,7.07-3.34,8.5-2.89,1.27-6,0-9-.22a12.71,12.71,0,0,0-6.75,1.54c-4.57,2.41-7.42,6.91-8.93,11.72a35.59,35.59,0,0,0-1.31,16.58A19.79,19.79,0,0,0,309.08,79a14.28,14.28,0,0,0,13.17,2.44A29.64,29.64,0,0,0,330,77.34c.19-.13,1.59-1.34,1.84-1.23a11.2,11.2,0,0,0,.09,1.18,4.33,4.33,0,0,0,1.71,2.32c2,1.46,4.52,1.1,6.7.14,3.41-1.5,6.45-4.47,10.44-3.93a.1.1,0,0,0,.1-.17,9.11,9.11,0,0,0-5.79-2.93c-1-.11-1.15-.3-1.4-1.35q-.24-1-.45-2.07-.53-2.64-.87-5.31a107.47,107.47,0,0,1-.57-18.38c.28-6.35.92-12.68,1.55-19,.29-2.87.66-5.76.79-8.65a13.18,13.18,0,0,0-.84-6,5.79,5.79,0,0,0-5.16-3.42c-3.07-.11-5.72,1.68-8.14,3.34-.1.08,0,.25.1.18,2.08-1.44,4.26-2.95,6.83-3.25A5.76,5.76,0,0,1,343,11.94a12.87,12.87,0,0,1,.87,6.18c-.12,2.36-.41,4.71-.64,7.06-1,10.24-2.15,20.53-1.76,30.84a80.63,80.63,0,0,0,2.31,16.79.1.1,0,0,0,.1.07,9,9,0,0,1,3.72.71c.39.17,3,1.65,2.78,2s-1.13,0-1.39,0a8.56,8.56,0,0,0-1.32.26,14.52,14.52,0,0,0-3.14,1.35c-2.16,1.18-4.24,2.73-6.72,3.14-2.69.45-6.33-1.3-5.78-4.5,0-.07-.07-.16-.15-.11-3.59,2.6-7.43,5.35-11.9,6.08a14.33,14.33,0,0,1-11.94-3.87c-7.11-6.5-7.38-17.3-5.17-26,1.12-4.44,3.18-8.8,6.79-11.75a14.42,14.42,0,0,1,6-3c2.61-.58,5,0,7.63.39,3.53.45,6.8-.58,7.63-4.38a48.09,48.09,0,0,0,.65-6.46l.32-3.92a16.59,16.59,0,0,0,.14-3.3,3.3,3.3,0,0,0-2.93-2.91,10.9,10.9,0,0,1-3.29-.88,2,2,0,0,1,0-3.64,10,10,0,0,1,3.35-.92l4.4-.72L342.4,9c.13,0,.08-.21,0-.19Z" transform="translate(0.25 0.25)"/><path class="cls-2" d="M338.59,9.34a11,11,0,0,0-14,7.21c0,.08.07.17.15.11a3.37,3.37,0,0,1,3.85,0,5.42,5.42,0,0,1,2.27,3.79A36.47,36.47,0,0,1,331,29.3c-.09,1.38-.2,2.77-.36,4.15-.1.88-.21,1.77-.34,2.65-.08.52-.06,2-.4,2.42s-.79,0-1.23-.18a15.77,15.77,0,0,0-1.67-.6,17.54,17.54,0,0,0-3.13-.63c-9.47-1-17.77,5.17-21.55,13.53s-3.62,19.17,3,26a16.57,16.57,0,0,0,11.17,5.2c4.85.15,9.23-2.33,13.1-5a16.65,16.65,0,0,1,1.89-1.34s0-.07,0-.06a5.55,5.55,0,0,0-.27.92,4.24,4.24,0,0,0,.36,2.3,5.69,5.69,0,0,0,4.85,3.28,16.15,16.15,0,0,0,7.74-1.67,28.07,28.07,0,0,0,7.1-4.47.11.11,0,0,0,0-.17,17.82,17.82,0,0,1-6.55-2.46c-2.33-1.68-3.14-4.36-3.31-7.12s0-5.31.07-8q.1-4.34.23-8.67.25-8.79.63-17.58c.24-5.66.79-11.35.8-17,0-2-.31-4.31-2.07-5.55a3.36,3.36,0,0,0-4.27,0c-.09.09.05.23.14.15a3.29,3.29,0,0,1,4.49.39c1.37,1.32,1.54,3.42,1.51,5.2,0,3.53-.35,7.08-.52,10.61q-.51,11-.86,22-.16,5.46-.29,10.9c-.07,3.05-.38,6.25.14,9.27a8.18,8.18,0,0,0,3.82,5.88,13.77,13.77,0,0,0,3.26,1.38,13.07,13.07,0,0,1,2,.54c.49.24.42,0,.21.41s-1.06.84-1.48,1.14a24.62,24.62,0,0,1-10,4.4c-2.06.35-4.43.25-6.09-1.18a4.34,4.34,0,0,1-1.29-5.21c0-.08,0-.2-.14-.14-4.73,3.4-10,7.09-16.16,6.49a17.19,17.19,0,0,1-13.3-9.66c-5.11-10.42-1-24.7,8.47-31.21a19,19,0,0,1,19.16-1.58.09.09,0,0,0,.14-.06,79.13,79.13,0,0,0,1.33-14.16c0-3.08.08-7.49-3.41-8.79a3.73,3.73,0,0,0-1.81-.24c-.31,0-.63.25-.93.27s-.34.29-.15-.31a9.5,9.5,0,0,1,3.12-4.35,10.68,10.68,0,0,1,10.38-1.94c.12,0,.17-.15,0-.19Z" transform="translate(0.25 0.25)"/><path class="cls-2" d="M325.8,42c-6.85-1.78-12.32,4-14.26,10-2.15,6.64-1.78,14.87,3.56,19.93,4.22,4,11.55,4.71,15.47-.15,2.1-2.6,2.39-6.08,2.14-9.29-.3-3.91-1.15-7.8-1.8-11.66-.55-3.22-1.05-7.41-4.52-8.8-3.71-1.48-7.32.95-9.7,3.63-.08.1.06.24.14.14,2.26-2.55,5.57-4.87,9.15-3.7,3.35,1.09,4.06,4.81,4.58,7.85.57,3.38,1.2,6.76,1.68,10.16.45,3.16.7,6.63-.65,9.61-2.65,5.87-10.3,6.65-15.12,3.09-5.59-4.11-6.74-11.56-5.45-18a18.22,18.22,0,0,1,4.77-9.65,10.64,10.64,0,0,1,9.95-2.94c.13,0,.18-.16.06-.19Z" transform="translate(0.25 0.25)"/><path class="cls-2" d="M320.05,42.1c-5.93,3.36-8,10.42-7.54,16.87a37.81,37.81,0,0,0,2.72,11.42c1.1,2.69,3.11,5.38,6.19,5.8,2.9.4,5.32-1.69,6.63-4.08,1.8-3.3,2.58-7.35,3.09-11C332,55,332.38,47,325.78,44c-6.26-2.88-13,1.07-15.39,7.11,0,.12.15.17.2.06,2.15-5.45,7.94-9.3,13.82-7.49a9.48,9.48,0,0,1,6.25,5.91c1,3,.81,6.32.53,9.38a46.48,46.48,0,0,1-2,9.92c-1,3-2.66,6.38-6.05,7.06-3.79.76-6.52-2.7-7.77-5.8a39.74,39.74,0,0,1-2.49-9.77c-.85-6.78.95-14.51,7.3-18.11.11-.06,0-.23-.1-.17Z" transform="translate(0.25 0.25)"/><path class="cls-2" d="M317.1,43.5c-5.47,4.7-6.11,12.27-5.56,19,.25,3,.76,6,3.41,7.8a19.43,19.43,0,0,0,4.39,2,17.24,17.24,0,0,0,4.89,1.19c7.09.37,8.33-8.21,8.75-13.53a40.39,40.39,0,0,0-.7-11.61c-.57-2.59-1.67-5.37-4.13-6.69-2.71-1.46-6.14-.67-8.55,1-3,2.15-4.73,5.67-6.31,8.93-.06.11.12.21.17.1,2.41-5,6.27-11.86,12.94-10.49,3,.62,4.65,3.32,5.42,6.1a35.52,35.52,0,0,1,1.08,9.74,37.42,37.42,0,0,1-1.23,9.66c-.79,2.79-2.34,5.67-5.38,6.39s-6.89-.82-9.7-2.15a7.89,7.89,0,0,1-3.42-2.78,11,11,0,0,1-1.35-4.84c-.7-6.92-.24-14.89,5.43-19.75.09-.09-.05-.23-.15-.14Z" transform="translate(0.25 0.25)"/><path class="cls-2" d="M387.88,67.87c-5.13,5.71-14.72,6.14-19.95.35a14.24,14.24,0,0,1-3.62-10.4,7,7,0,0,1,.47-2.68c.44-.67,2.48.13,3.23.27a57.22,57.22,0,0,0,6.52.82,56.57,56.57,0,0,0,15.36-1.13A.11.11,0,0,0,390,55a17,17,0,0,0-30.52-11.14,29.5,29.5,0,0,0-5,24.94c2,7.15,7.77,13.07,15.31,14,9.65,1.26,18.09-4.74,23.71-12a.11.11,0,0,0,0-.14,9.8,9.8,0,0,0-7.73-.22c-.12,0-.07.24.05.19a9.76,9.76,0,0,1,3.62-.7,10,10,0,0,1,2,.23,4.17,4.17,0,0,1,.8.22.44.44,0,0,1,.49.54.45.45,0,0,1-.14.72,12,12,0,0,1-2.17,2.46,33.57,33.57,0,0,1-2.52,2.4,24.79,24.79,0,0,1-13.61,6.18,17.65,17.65,0,0,1-13.61-4.22A20.93,20.93,0,0,1,354.22,67a29.62,29.62,0,0,1,1.47-15.65c1.62-4.54,4.31-8.93,8.49-11.52a16.86,16.86,0,0,1,23.35,5.9A17.18,17.18,0,0,1,389.76,53a4.64,4.64,0,0,1,0,1.66c-.31.62-1.64.62-2.24.72-1.52.26-3.06.46-4.61.59a56,56,0,0,1-18.06-1.42.1.1,0,0,0-.12.07A13.69,13.69,0,0,0,388,68c.08-.09-.06-.23-.14-.14Z" transform="translate(0.25 0.25)"/><path class="cls-2" d="M388.78,68.24a14.11,14.11,0,0,1-24.33-10.16,6,6,0,0,1,.33-2.55c.39-.69,2.19-.05,2.9.06a90.49,90.49,0,0,0,12.2,1.07c2.59.05,5.85,0,7.25-2.63,1.26-2.31.26-5.25-.91-7.38a23.44,23.44,0,0,0-6-7.06A15.14,15.14,0,0,0,363.76,38c-5.93,3-9.47,8.86-10.76,15.21A30.69,30.69,0,0,0,354.87,72a17.71,17.71,0,0,0,14,10.12,31.93,31.93,0,0,0,9.85-.36c3.18-.56,6.58-1.36,9.23-3.29,2.15-1.57,4.1-4.36,3.12-7.13-.73-2.06-3.07-3.47-5.07-2.13a2.79,2.79,0,0,0-1.3,2.48.1.1,0,0,0,.2,0,2.82,2.82,0,0,1,2.66-2.82A3.58,3.58,0,0,1,391,71.53c.89,2.87-1.33,5.6-3.57,7.08-3.79,2.5-9.14,3.3-13.59,3.48s-9.27-.58-13-3.23a19.5,19.5,0,0,1-7.3-11.44c-2.21-8.83-.8-20,6.19-26.4a16.8,16.8,0,0,1,12.49-4.59c4.64.39,8.6,3.26,11.47,6.78a16.86,16.86,0,0,1,3.67,6.71c.68,3.08-.66,5.73-3.9,6.35-2.84.56-6,.15-8.89-.08a90,90,0,0,1-9.66-1.29.11.11,0,0,0-.13.07,14.23,14.23,0,0,0,24.21,13.41.1.1,0,0,0-.14-.14Z" transform="translate(0.25 0.25)"/><path class="cls-2" d="M384.09,69.48A12.33,12.33,0,0,1,365.65,69c-2-2.47-3.54-6.22-2.38-9.39.88-2.4,3.13-2.66,5.4-2.71l6.18-.14,14.57-.31a.12.12,0,0,0,.09,0,10.8,10.8,0,0,0-.31-10.05,15.17,15.17,0,0,0-8.66-7c-6.92-2.44-17.28-2.81-22,3.9-2.38,3.42-3.22,7.74-4.08,11.75-.94,4.36-1.66,9-.68,13.4C355.5,76,362.54,80.91,370,81.9c9,1.2,19.43-3.52,20.75-13.31,0-.07-.07-.17-.14-.11-6,4.54-14.12,6.6-21.19,3.23-6.65-3.18-10.48-11.18-7.11-18.12.06-.11-.12-.22-.17-.1-2.88,5.91-.61,13,4.58,16.84,5.76,4.21,13.42,4,19.66,1A23.54,23.54,0,0,0,389,69.88c.35-.23.69-.51,1-.72.64-.37.48-.08.35.52A14,14,0,0,1,388,74.89a17.12,17.12,0,0,1-10.22,6.47c-7.1,1.6-15.23-.43-20.17-5.94-5.89-6.56-4.11-15.7-2.24-23.48.87-3.62,2-7.45,4.65-10.16S367,38.05,370.86,38c7.49-.06,16.61,2.54,19.06,10.53a10.54,10.54,0,0,1,.24,5.57,5.2,5.2,0,0,1-.51,1.48c-.32.51-.63.55-1.22.61-1.21.12-2.48.05-3.7.08l-13.59.29c-2.94.07-6.83-.48-8.06,2.92-1,2.66,0,5.8,1.38,8.12a12.47,12.47,0,0,0,19.77,2,.1.1,0,0,0-.14-.14Z" transform="translate(0.25 0.25)"/><path class="cls-2" d="M410.75,80.8l-9.47.52-4.49.24c-.87,0-1.88.26-2-.92a2.43,2.43,0,0,1,1.69-2.25c1-.47,2.21-.57,3.22-1.1a6.39,6.39,0,0,0,2-1.73,11.27,11.27,0,0,0,2.06-6.49c.27-4.61.25-9.67-1.11-14.13a14.61,14.61,0,0,0-3-5.49,28.74,28.74,0,0,1-2.5-2.68,2.52,2.52,0,0,1-.47-2.27A5,5,0,0,1,399,42.17c2.52-1.77,6-3.22,9-2,2.64,1.11,4.62,4.36,3.13,7.1a.1.1,0,0,0,.16.12A39.64,39.64,0,0,1,417.8,42c2.5-1.56,6.89-3.5,9.44-1.06,3.32,3.17-1.58,6.17-4.29,7a13,13,0,0,1-9.08-.54c-.05,0-.13,0-.14.06L411,62.84c-.65,3.6-2.2,8.47.65,11.55,1.3,1.4,2.89,1.46,4.69,1.33a5.3,5.3,0,0,1,3.12.42c1.58.91,1.23,2.62-.17,3.44-2,1.17-4.74.93-6.95,1.08l-7.94.53c-.13,0-.13.21,0,.2,4-.26,7.95-.44,11.92-.79,1.52-.14,4.16-.65,4.41-2.55.29-2.16-2.39-2.65-4-2.56-2,.11-3.8.22-5.2-1.51a7.8,7.8,0,0,1-1.26-5.86c.42-3.84,1.32-7.68,2-11.49l1-5.3a18.82,18.82,0,0,1,.52-2.89c.38-1.08.55-.62,1.53-.32a13.14,13.14,0,0,0,8.47-.28c2-.74,4.88-2.3,4.77-4.79s-2.86-3.61-5-3.43c-2.87.24-5.55,1.84-7.77,3.56-1.2.93-2.31,2-3.4,3-.19.19-.42.37-.59.57-.42.51-.22.43-.15.12a6.75,6.75,0,0,0,.29-1.54,6.09,6.09,0,0,0-3.2-5c-2.23-1.24-5-.81-7.23.2-1.77.79-5.54,2.64-5,5.12a6,6,0,0,0,1.82,2.64,16.44,16.44,0,0,1,3,3.69,21.85,21.85,0,0,1,2.27,9c.13,1.66.15,3.33.15,5a24.27,24.27,0,0,1-.51,6.25,7.92,7.92,0,0,1-3.08,4.65c-1.35.88-3.12.8-4.42,1.75a2.45,2.45,0,0,0-1,2.33c.29,1.35,1.61.86,2.66.81L410.75,81c.13,0,.13-.21,0-.2Z" transform="translate(0.25 0.25)"/><path class="cls-2" d="M406.66,80.14c-3.2.22-6.5.72-9.69.67-.32,0-.76.09-1-.2s-.19-1.07-.18-1.39A4.08,4.08,0,0,1,396.6,77a4,4,0,0,1,5-1,.09.09,0,0,0,.14-.06,85,85,0,0,0,1-13.52q0-3.39-.3-6.77a25.25,25.25,0,0,0-.84-5.53,6.76,6.76,0,0,0-1.06-2.11c-.44-.57-1.05-.94-1.52-1.48-2-2.28,2.31-5,4.09-5.87,2-1,4.49-1.19,6.22.42,1.43,1.31,2.11,3.62.7,5.19-.07.08,0,.22.12.16l7.64-4.78c2.32-1.45,6.39-4.12,8.45-.83,1.53,2.45.2,5.29-2.08,6.67-2.77,1.68-6.15,1.24-9.2.82a.13.13,0,0,0-.13.07c-1,3.61-1.94,7.25-2.76,10.91-.75,3.34-1.76,6.88-1.93,10.31-.13,2.76,1.33,4.32,3.76,5.36A11,11,0,0,1,417.74,77a2.47,2.47,0,0,1,.64,2.92c-.51.91-1.75,1.62-2.66.79-.1-.09-.24,0-.15.14a1.9,1.9,0,0,0,2.83-.6c1-1.36.15-2.91-1-3.84-1.76-1.41-4.3-1.6-5.87-3.28-2.15-2.3-.71-6.38-.18-9.07.61-3,1.28-6.07,2-9.07q.56-2.27,1.17-4.5c.16-.6.22-1.77.93-2a6.33,6.33,0,0,1,1.9.23c3.69.34,9.54-.58,9.82-5.35a4.22,4.22,0,0,0-2-4c-2-1-4.24.11-6,1.15-2.63,1.58-5.2,3.25-7.8,4.88a10.07,10.07,0,0,1-.88.61s-.26.48.14-.14A3.25,3.25,0,0,0,411,45a3.76,3.76,0,0,0-.14-2.1c-1.45-4.17-6.19-3.68-9.21-1.64-1.29.87-3.79,2.6-3.25,4.47.25.86,1.12,1.34,1.7,1.94a7.32,7.32,0,0,1,1.7,3.71,56.82,56.82,0,0,1,.8,10.5A82,82,0,0,1,402.1,72a15.87,15.87,0,0,1-.36,2.85c-.32,1-.29.64-1.21.47a4.34,4.34,0,0,0-2.7.36A4.21,4.21,0,0,0,395.9,81a.12.12,0,0,0,.1.08l10.66-.74c.12,0,.12-.21,0-.2Z" transform="translate(0.25 0.25)"/><path class="cls-2" d="M410.24,79.49a25.31,25.31,0,0,1-9.88,2.86,24.44,24.44,0,0,1-4.76-.1c-1.24-.15-2.23-.56-2.21-2a3,3,0,0,1,1.66-2.51c2.27-1.31,5.34-.71,7.14-2.9,1.51-1.85,1.44-4.54,1.32-6.79-.31-5.89-.7-12-2.88-17.52a28.18,28.18,0,0,0-1.86-3.78c-.6-1-1.29-2.09-.37-3.25a5.65,5.65,0,0,1,2.13-1.29L405.38,40l2.2-1,1.1-.5.67-.31q.52.1.39.66a11.72,11.72,0,0,1,.26,2.38l.29,2.61c.1.87.15,1.76.29,2.62a1.78,1.78,0,0,0,.37,1.07c1.46,1.41,3.23-2.26,3.75-3,1.61-2.41,3.73-5.08,6.78-5.56,2.41-.38,5.55.61,6.11,3.29.87,4.11-3.8,6.12-7.11,5.86-2-.16-4.71-1.07-6,1.07a13.15,13.15,0,0,0-1.17,4q-.63,2.73-1.16,5.48a76.21,76.21,0,0,0-1.46,9.5c-.12,2,0,4.5,1.71,5.87a5.43,5.43,0,0,0,2.82,1c1.32.17,3.41.09,4.11,1.5A2.53,2.53,0,0,1,418,79.61a6.88,6.88,0,0,1-3.14.6c-2,.06-3.94.07-5.91.1l-12.49.19a.1.1,0,0,0,0,.2l14-.22a39.75,39.75,0,0,0,6.08-.2,3.75,3.75,0,0,0,3-2c1.13-2.58-1.88-3.24-3.7-3.45s-3.65-.68-4.45-2.66a10.17,10.17,0,0,1-.42-4.9,119,119,0,0,1,2.43-13.63c.52-2.25.75-5.5,3.65-5.68,1.78-.12,3.49.5,5.29.31,2.74-.29,5.52-2.2,5.56-5.2,0-2.43-2.07-4-4.3-4.33-3.32-.51-6,1.57-7.91,4.06-.64.83-1.21,1.71-1.78,2.59a9.23,9.23,0,0,1-1,1.52c-.51.53-.48.45-1.27.17-.59,0-.86-.2-.8-.68,0-.3-.07-.59-.1-.88-.29-2.54-.56-5.07-.84-7.61a.1.1,0,0,0-.15-.08l-8.6,3.94c-1.56.72-3.88,1.54-3.23,3.7a19.7,19.7,0,0,0,1.56,2.89,26.85,26.85,0,0,1,1.71,4.24,43.75,43.75,0,0,1,1.63,8.26c.3,2.69.51,5.41.59,8.12.09,2.89-.35,6.09-3.46,7.2-2,.71-4.65.56-6.09,2.38-.76.95-.95,2.78.19,3.55.83.55,2.38.46,3.34.5a25,25,0,0,0,13-2.93c.12-.06,0-.23-.1-.17Z" transform="translate(0.25 0.25)"/><path class="cls-2" d="M363.9,51.63a18.79,18.79,0,0,1,3.17-6.7,10,10,0,0,1,2.72-2.71A5.17,5.17,0,0,1,374,42a4.83,4.83,0,0,1,3.15,2.32,22.4,22.4,0,0,1,1,3.72,3.42,3.42,0,0,1,.08,2.12,2.5,2.5,0,0,1-1.88,1.36,12.32,12.32,0,0,1-4,.13,25.07,25.07,0,0,0-8.92.65.1.1,0,0,0,.06.19,22.32,22.32,0,0,1,5.26-.8c1.57-.05,3.13.16,4.7.24,2.12.11,5.5-.16,5.1-3.07-.09-.71-.36-1.39-.51-2.09a13.83,13.83,0,0,0-.58-2.3A4.37,4.37,0,0,0,375,42.19a7.17,7.17,0,0,0-3.92-.66,5.26,5.26,0,0,0-2.91,1.76,18.76,18.76,0,0,0-4.5,8.29c0,.12.16.17.2.05Z" transform="translate(0.25 0.25)"/><path class="cls-2" d="M363.52,52A11.73,11.73,0,0,1,366.63,45c1.64-1.92,4-4,6.75-3.31s3.76,3.38,4.26,5.76a8,8,0,0,1,.29,2.06A1.93,1.93,0,0,1,376,51.46a35.05,35.05,0,0,1-4.1.17c-2.95,0-6-.59-8.88.2-.12,0-.07.23.05.19,3.29-.89,6.8-.12,10.16-.2.83,0,1.67-.07,2.5-.14a3.21,3.21,0,0,0,1.63-.43c1-.71.84-2,.65-3.08-.45-2.47-1.34-5.36-3.87-6.43s-5,.41-6.71,2.14c-2.15,2.16-3.94,4.95-4.09,8.08a.1.1,0,0,0,.2,0Z" transform="translate(0.25 0.25)"/><path class="cls-2" d="M363.94,52a10.94,10.94,0,0,1,3.29-7,10.34,10.34,0,0,1,2.75-2.4,4.85,4.85,0,0,1,3.79-.23,6.64,6.64,0,0,1,4.13,5.9,9.61,9.61,0,0,1,0,1.78,5,5,0,0,1-.16,1c-.21.61-.71.74-1.29.8a25.54,25.54,0,0,1-4.1-.07,42.08,42.08,0,0,0-8.76-.19c-.13,0-.07.22.05.2,3.37-.47,6.72.13,10.08.27a22.44,22.44,0,0,0,2.32,0,2.69,2.69,0,0,0,1.43-.29c.87-.62.72-2.48.66-3.38a7,7,0,0,0-3.62-6,5.38,5.38,0,0,0-3.42-.45,6.37,6.37,0,0,0-3.1,1.91c-2.26,2.28-4.08,4.77-4.23,8.08a.1.1,0,0,0,.2,0Z" transform="translate(0.25 0.25)"/></svg>