<svg id="Layer_1" data-name="Layer 1" xmlns="http://www.w3.org/2000/svg" viewBox="0 0 459.5 91.08"><defs><style>.cls-1{fill:#353234;}.cls-2{fill:none;stroke:#353234;stroke-miterlimit:10;}</style></defs><path class="cls-1" d="M11.29,48.21c2.77,2.18,4.35,5.35,4.35,9.7A39.38,39.38,0,0,1,14.55,66a41.27,41.27,0,0,0-1.09,9.21c0,7.72,4.95,11.28,10.1,12.28a10,10,0,0,0,3.17.39c1,0,1,.59,1,1.78,0,.79-.2,1.39-1.39,1.39-1,0-2.17-.2-3.36-.2C11.88,90.29,3.76,85.73,3.76,75.14A31.67,31.67,0,0,1,5.54,65c1-3.36,2-6.33,2-9.5,0-3.37-.79-6.54-3.16-8.12A7,7,0,0,0,.79,46.23,1.73,1.73,0,0,1-.79,44.45c0-1.19.59-1.78,1.58-1.78a7.54,7.54,0,0,0,3.76-.79c2-1,3-3.57,3-7.13,0-3-1-6.14-1.78-9.31a33.83,33.83,0,0,1-2-9.8C3.76,6.53,10.3,1.19,21,.2c1.78,0,3.56-.2,5-.2s1.78.59,1.78,1.39c0,1.18-.2,1.78-1.19,1.78a13.88,13.88,0,0,0-2.77.2c-6.34.79-10.3,4.75-10.3,11a37.17,37.17,0,0,0,1.09,9.11,34.29,34.29,0,0,1,1.09,7.72c0,4.76-2.18,8.52-4.55,9.9-2,1.59-3.76,2.38-3.76,3.37C7.33,45.84,9.31,46.23,11.29,48.21Z" transform="translate(0.79 0)"/><path class="cls-1" d="M71,20.05a26.23,26.23,0,0,1,5.45,15.54c0,13.27-5,27.72-16.24,37.22-5.54,4.56-9.5,6.74-15.25,8.52a24.79,24.79,0,0,1-3,.59,1.44,1.44,0,0,1-1.58-1.58,2,2,0,0,1,1-1.59C49.89,75.59,61,64.7,63,50l-.39-.2c-2,1.78-5.55,3.76-11.29,3.76-12.67,0-17.42-10.3-17.42-18.51,0-5.55,3.56-13.47,7.32-16.83a19.69,19.69,0,0,1,13.47-5.35C62.37,12.82,66.82,14.9,71,20.05ZM62.76,44.8c1.39-2,1.59-6.93,1.59-11.19,0-8.91-2-17.23-9.31-17.23-5.94,0-10.1,5.55-10.1,15.55,0,9.5,4.56,16.63,10.3,16.63C59.2,48.56,61.58,46.78,62.76,44.8Z" transform="translate(0.79 0)"/><path class="cls-1" d="M127.51,14.31a.92.92,0,0,1,1,1,5.9,5.9,0,0,1-1.39,2.77c-1,1.78-8.11,14.65-12.07,24.55a314.4,314.4,0,0,0-11.49,32.77c-1.09,4-3.56,6.53-7.13,6.53a4.82,4.82,0,0,1-5-5c0-3,2.18-7.52,3.77-10.49C97,63.21,114.64,32.72,119.59,24H96.42c-5.94,0-7.12,2-9.9,5.94-.59.79-1.18.59-2,.2-1-.6-1-.6-.59-1.59l6.14-17.22c.2-.6.39-.8,1.58-.8,1,0,1.39.4,1.19,1.79s.6,2,5.74,2Z" transform="translate(0.79 0)"/><path class="cls-1" d="M152.16,12.57a15,15,0,0,1,11.36,5,15.09,15.09,0,0,1,4.15,10.78,14.9,14.9,0,0,1-4.68,11,15.23,15.23,0,0,1-10.88,4.4,15,15,0,0,1-11.55-5.08,15.05,15.05,0,0,1-4-10.44A15.91,15.91,0,0,1,138,21.66a14.47,14.47,0,0,1,3.89-5.27A16,16,0,0,1,152.16,12.57ZM152,18.22a9,9,0,0,0-6.43,2.66,10,10,0,0,0-.82,13.78,9.07,9.07,0,0,0,7.3,3.43,9.42,9.42,0,0,0,6.84-2.9,9.24,9.24,0,0,0,2.93-6.77,9.87,9.87,0,0,0-2.71-7A9.65,9.65,0,0,0,152,18.22Z" transform="translate(0.79 0)"/><path class="cls-1" d="M266.85,64.3a.77.77,0,0,1,.19,1c-5.94,8.51-15.44,16.63-29.5,16.63-12.67,0-19.8-3.76-25.94-9.3-7.32-6.54-10.69-18-10.69-26.73A38.42,38.42,0,0,1,211,19.35c5.34-5.74,13.86-10.49,25.74-10.49a43.15,43.15,0,0,1,20,4.75c1.38.79,1.78.79,2,0l.79-2.57c.2-.6.4-.6,1.58-.6s1.39.2,1.39,1.59c0,1.78,2,17.62,2.37,20.59.1.59,0,.89-.39,1l-1.88.59c-.5.2-.79-.19-1.09-1a35.14,35.14,0,0,0-7.72-12.87c-4.36-4.15-9.51-7.32-17.23-7.32-15.84,0-22.37,14.25-22.37,28.51,0,6.14,1.78,17.82,9.11,25.74,6.53,6.93,12.27,7.72,17,7.72,10.89,0,19.51-5.44,23.66-11.48.5-.7.89-1,1.19-.7Z" transform="translate(0.79 0)"/><path class="cls-1" d="M278.82,52.22c0-3-.59-4.95-5.14-6.14-.9-.19-1-.49-1-.89V44.1c0-.39.19-.59.69-.79,1.39-.59,11.19-4.06,12.87-4.75a6.73,6.73,0,0,1,2.37-.59c.6,0,.9.39.8,1.18-.2,1.59-.2,7.92-.2,16.14V66c0,3.76,0,7.33.2,8.52.19,1.78.59,2.57,1.58,2.57h4c.79,0,1,.2,1,.69v2c0,.6-.2,1-.79,1-.79,0-5.35-.29-12-.29-5.74,0-9.5.29-10.69.29-.5,0-.79-.19-.79-1V77.86c0-.59.39-.79,1-.79H277c1,0,1.49-.39,1.59-2,.1-3,.19-6.14.19-8.91ZM282.19,28c-3.17,0-6.34-2.48-6.34-5.94,0-3,2.88-6.14,6.93-6.14a6,6,0,0,1,6.14,5.74C288.92,24.6,286.84,28,282.19,28Z" transform="translate(0.79 0)"/><path class="cls-1" d="M341.19,64.2c0,3.76.2,7.72,1,8.71,1,1.19,2.78,1.59,4.16,1.78,1.39,0,1.78.2,2,.6l.2,1.19a.82.82,0,0,1-.59,1.18l-13.27,3.77c-.59.19-1.19-.2-1.39-1l-1.38-4.56c-3.17,3.37-9.31,5.74-13.86,5.74a16.38,16.38,0,0,1-11.88-4.85A18.48,18.48,0,0,1,300,62.22a24.34,24.34,0,0,1,6.93-17.92A19.3,19.3,0,0,1,321.59,38a29.9,29.9,0,0,1,9.31,1.38l-.3-19.2c-.1-3.37-.89-4.76-6.24-5.75-.59-.19-.79-.39-.79-.79V11.83c0-.4.2-.59.79-.79,4.95-.6,11.49-1.19,14.06-1.78a16.27,16.27,0,0,1,2.58-.4c.39,0,.79.59.59,1.78-.4,4.95-.4,19.21-.4,32Zm-10.29-13a9.81,9.81,0,0,0-1-4.75,9.92,9.92,0,0,0-8.71-4.65,8.22,8.22,0,0,0-6.84,3,17.8,17.8,0,0,0-4,11.88c0,11.28,6,19.4,12.18,19.4a8.83,8.83,0,0,0,7.53-3.56,8.4,8.4,0,0,0,.79-4Z" transform="translate(0.79 0)"/><path class="cls-1" d="M362.68,58.46c0,10.1,7.22,16,12.87,16,6.13,0,9.9-2.58,12-5.74.4-.7.8-.7,1.19-.5l1.49.89c.49.3.69.69,0,2a19.62,19.62,0,0,1-18,10.49c-6.34,0-10.79-1.38-14.26-5.34-4.55-5.25-5.54-10.2-5.54-16.34,0-5.44.59-9.1,4.85-14.65C361.39,40,365.84,38,374.46,38c11.28,0,15,11.78,15,15.84,0,1.48-1,1.58-2.78,1.58H362.68ZM375,51.83c2.08,0,3.27-.6,3.27-1.39,0-3-1-8.81-6.14-8.81-4.85,0-7.82,3.56-9.11,10.2Z" transform="translate(0.79 0)"/><path class="cls-1" d="M401.19,55c0-4.55-.8-6.13-3.77-7.72l-1.78-1c-.59-.2-.79-.39-.79-.79V44.9c0-.4.2-.6.79-.89l12-5.65A4.64,4.64,0,0,1,409.2,38c.6,0,.8.59.9,1.18l.89,7.33h.39c3.37-5.54,7.53-8.91,11.88-8.91a4.84,4.84,0,0,1,5.15,5,5.75,5.75,0,0,1-5.35,5.35,7.58,7.58,0,0,1-3.36-.8,4.56,4.56,0,0,0-2.77-.79,5.16,5.16,0,0,0-4.16,2.87A11.34,11.34,0,0,0,411.58,54V72.91c0,3.17.79,4.16,2.77,4.16h4.36c.59,0,.79.2.79.69V80c0,.5-.2.69-.69.69-.7,0-5.05-.29-12.28-.29-6.93,0-10.79.29-11.58.29-.5,0-.69-.19-.69-.69V77.86c0-.59.19-.79.89-.79h3.46a2.33,2.33,0,0,0,2.58-2.67Z" transform="translate(0.79 0)"/><path class="cls-1" d="M446.63,40.89c-2.78-2.18-4.36-5.35-4.36-9.71a38.24,38.24,0,0,1,1.19-7.72,60,60,0,0,0,1-8.41c0-6.73-4.95-10.69-10.1-11.68-1,0-2.18-.2-3-.2s-1.19-.4-1.19-1.59c0-1,.4-1.58,1.78-1.58.8,0,2,.2,3.17.2,10.69.59,19,5.54,19,15.34a30.15,30.15,0,0,1-2,9.7c-.79,2.78-1.78,5.55-1.78,8.32,0,3.37.79,6.53,3.17,8.12a6.92,6.92,0,0,0,3.36,1.19,1.61,1.61,0,0,1,1.78,1.58c0,1.19-.59,2-1.78,2a10.51,10.51,0,0,0-3.56.59c-2.18,1-3,3.77-3,7.33,0,2.77,1,5.74,1.78,9.11a38.17,38.17,0,0,1,2,11.19c0,9.5-6.73,15.24-17.42,16.23-1.59,0-3,.2-4.76.2-1.18,0-1.78-.6-1.78-1.58s.4-1.59,1.19-1.59a14.84,14.84,0,0,0,3-.2c6.14-.79,10.1-5.15,10.1-11.78a68.23,68.23,0,0,0-1-10.49,36.45,36.45,0,0,1-1.19-7.53c0-4.95,2.18-8.31,4.55-9.9,2-1.58,3.77-2.37,3.77-3.56S448.6,42.87,446.63,40.89Z" transform="translate(0.79 0)"/><circle class="cls-2" cx="152.84" cy="28.07" r="15.5"/></svg>