<svg id="Layer_1" data-name="Layer 1" xmlns="http://www.w3.org/2000/svg" viewBox="0 0 72 72"><defs><style>.cls-1{fill:none;}.cls-1,.cls-2{stroke:#4d3c43;stroke-linecap:round;stroke-miterlimit:10;stroke-width:4px;}.cls-2{fill:#4d3c43;}</style></defs><path class="cls-1" d="M98,48c0,4.34-4.71,7.71-6.28,11.48S91,69.09,88,72s-8.65,2.06-12.56,3.68S68.34,82,64,82s-7.71-4.71-11.48-6.28S42.91,75,40,72s-2.06-8.65-3.68-12.56S30,52.34,30,48s4.71-7.71,6.28-11.48S37,26.91,40,24s8.65-2.06,12.56-3.68S59.66,14,64,14s7.71,4.71,11.48,6.28S85.09,21,88,24s2.06,8.65,3.68,12.56S98,43.66,98,48Z" transform="translate(-28 -12)"/><path class="cls-2" d="M80.63,41.11c-1-2.32-.74-5.5-2.49-7.25s-4.93-1.53-7.25-2.49S66.58,28,64,28s-4.65,2.43-6.89,3.36-5.5.74-7.25,2.49-1.53,4.93-2.49,7.25S44,45.42,44,48s2.43,4.65,3.36,6.89.74,5.5,2.49,7.25,4.93,1.53,7.25,2.49S61.42,68,64,68s4.65-2.43,6.89-3.36,5.5-.74,7.25-2.49,1.53-4.93,2.49-7.25S84,50.58,84,48,81.56,43.35,80.63,41.11ZM64,56a8,8,0,1,1,8-8A8,8,0,0,1,64,56Z" transform="translate(-28 -12)"/><circle class="cls-1" cx="36" cy="36" r="8"/><circle class="cls-1" cx="36" cy="36" r="8"/></svg>