<svg id="Layer_1" data-name="Layer 1" xmlns="http://www.w3.org/2000/svg" xmlns:xlink="http://www.w3.org/1999/xlink" viewBox="0 0 256.01 273.94"><defs><style>.cls-1,.cls-4{fill:none;}.cls-1{opacity:0;}.cls-2{clip-path:url(#clip-path);}.cls-3{opacity:0.14;}.cls-4{stroke:#333;stroke-miterlimit:10;stroke-width:6px;}</style><clipPath id="clip-path" transform="translate(0 9)"><rect class="cls-1" width="256" height="256"/></clipPath></defs><g class="cls-2"><g class="cls-3"><path class="cls-4" d="M0,217.62c21.33,0,21.31,12,42.64,12.06s21.35-12,42.69-11.93,21.31,12,42.64,12.06,21.36-12,42.69-11.94,21.32,12,42.65,12.07S234.67,218,256,218" transform="translate(0 9)"/></g><g class="cls-3"><path class="cls-4" d="M0,186c21.33,0,21.31,12,42.64,12.06s21.35-12,42.69-11.93,21.31,12,42.64,12.06,21.36-12,42.69-11.94,21.32,12,42.65,12.07,21.35-12,42.69-11.94" transform="translate(0 9)"/></g><g class="cls-3"><path class="cls-4" d="M0,153.62c21.33,0,21.31,12,42.64,12.06s21.35-12,42.69-11.93,21.31,12,42.64,12.06,21.36-12,42.69-11.94,21.32,12,42.65,12.07S234.67,154,256,154" transform="translate(0 9)"/></g><g class="cls-3"><path class="cls-4" d="M0,122c21.33,0,21.31,12,42.64,12.06s21.35-12,42.69-11.93,21.31,12,42.64,12.06,21.36-12,42.69-11.94,21.32,12,42.65,12.07,21.35-12,42.69-11.94" transform="translate(0 9)"/></g><g class="cls-3"><path class="cls-4" d="M0,249.62c21.33,0,21.31,12,42.64,12.06s21.35-12,42.69-11.93,21.31,12,42.64,12.06,21.36-12,42.69-11.94,21.32,12,42.65,12.07S234.67,250,256,250" transform="translate(0 9)"/></g><g class="cls-3"><path class="cls-4" d="M0,89.49c21.33,0,21.31,12,42.64,12.06S64,89.59,85.34,89.62s21.31,12,42.64,12.06,21.36-12,42.69-11.93,21.32,12,42.65,12.06,21.35-12,42.69-11.94" transform="translate(0 9)"/></g><g class="cls-3"><path class="cls-4" d="M0,58c21.33,0,21.31,12,42.64,12.06S64,58.1,85.34,58.13s21.31,12,42.64,12.06,21.36-12,42.69-11.94,21.32,12,42.65,12.07,21.35-12,42.69-11.94" transform="translate(0 9)"/></g><g class="cls-3"><path class="cls-4" d="M0,25.49c21.33,0,21.31,12,42.64,12.06S64,25.59,85.34,25.62s21.31,12,42.64,12.06,21.36-12,42.69-11.93,21.32,12,42.65,12.06,21.35-12,42.69-11.94" transform="translate(0 9)"/></g><g class="cls-3"><path class="cls-4" d="M0-6C21.34-6,21.32,6,42.65,6.06S64-5.9,85.34-5.87,106.65,6.16,128,6.19s21.36-12,42.69-11.94S192,6.29,213.32,6.32,234.67-5.65,256-5.62" transform="translate(0 9)"/></g></g></svg>