<svg id="Layer_1" data-name="Layer 1" xmlns="http://www.w3.org/2000/svg" viewBox="0 0 256.02 273.94"><defs><style>.cls-1{fill:#ddcae3;}.cls-2{opacity:0.09;}.cls-3{fill:none;stroke:#333;stroke-miterlimit:10;stroke-width:6px;}</style></defs><rect class="cls-1" width="256.01" height="273.94"/><g class="cls-2"><path class="cls-3" d="M0,226.62c21.33,0,21.31,12,42.64,12.06s21.35-12,42.69-11.93,21.31,12,42.64,12.06,21.36-12,42.69-11.94,21.32,12,42.65,12.07S234.67,227,256,227"/></g><g class="cls-2"><path class="cls-3" d="M0,195c21.33,0,21.31,12,42.64,12.06s21.35-12,42.69-11.93,21.31,12,42.64,12.06,21.36-12,42.69-11.94,21.32,12,42.65,12.07,21.35-12,42.69-11.94"/></g><g class="cls-2"><path class="cls-3" d="M0,162.62c21.33,0,21.31,12,42.64,12.06s21.35-12,42.69-11.93,21.31,12,42.64,12.06,21.36-12,42.69-11.94,21.32,12,42.65,12.07S234.67,163,256,163"/></g><g class="cls-2"><path class="cls-3" d="M0,131c21.33,0,21.31,12,42.64,12.06s21.35-12,42.69-11.93,21.31,12,42.64,12.06,21.36-12,42.69-11.94,21.32,12,42.65,12.07,21.35-12,42.69-11.94"/></g><g class="cls-2"><path class="cls-3" d="M0,258.62c21.33,0,21.31,12,42.64,12.06s21.35-12,42.69-11.93,21.31,12,42.64,12.06,21.36-12,42.69-11.94,21.32,12,42.65,12.07S234.67,259,256,259"/></g><g class="cls-2"><path class="cls-3" d="M0,98.49c21.33,0,21.31,12,42.64,12.06s21.36-12,42.7-11.93,21.31,12,42.64,12.06,21.36-12,42.69-11.93,21.32,12,42.65,12.06,21.35-12,42.69-11.94"/></g><g class="cls-2"><path class="cls-3" d="M0,67c21.33,0,21.31,12,42.64,12.06S64,67.1,85.34,67.13s21.31,12,42.64,12.06,21.36-12,42.69-11.94,21.32,12,42.65,12.07,21.35-12,42.69-11.94"/></g><g class="cls-2"><path class="cls-3" d="M0,34.49c21.33,0,21.31,12,42.64,12.06s21.36-12,42.7-11.93,21.31,12,42.64,12.06,21.36-12,42.69-11.93,21.32,12,42.65,12.06,21.35-12,42.69-11.94"/></g><g class="cls-2"><path class="cls-3" d="M0,3C21.34,3,21.32,15,42.65,15.06S64,3.1,85.34,3.13s21.31,12,42.66,12.06,21.36-12,42.69-11.94,21.31,12,42.63,12.07S234.67,3.35,256,3.38"/></g></svg>