<svg id="Layer_1" data-name="Layer 1" xmlns="http://www.w3.org/2000/svg" viewBox="0 0 257 130.66"><defs><style>.cls-1{fill:#4d3c43;stroke:#4d3c43;stroke-miterlimit:10;}</style></defs><path class="cls-1" d="M256,127V256H0V126.27c5.82,0,5.82,2,11.63,2s5.83-2,11.64-2,5.82,2,11.63,2,5.82-2,11.64-2,5.81,2,11.63,2,5.82-2,11.64-2,5.81,2,11.62,2,5.82-2,11.64-2,5.81,2,11.63,2,5.83-2,11.64-2,5.81,2,11.63,2,5.83-2,11.64-2,5.82,2,11.64,2,5.82-2,11.64-2,5.81,2,11.63,2,5.82-2,11.64-2,5.81,2,11.63,2,5.83-2,11.64-2,5.82,2,11.64,2,5.82-2,11.64-2,5.82,2,11.64,2,5.83-2,11.65-2" transform="translate(0.5 -125.84)"/></svg>